<?xml version="1.0" encoding="utf-8"?>
<svg viewBox="68.637 93.365 373.241 304.952" xmlns="http://www.w3.org/2000/svg">
  <line style="stroke-width: 13px; stroke-linecap: round; stroke: #F6A89C;" x1="79.454" y1="104.951" x2="270.472" y2="104.951"/>
  <line style="stroke-width: 13px; stroke-linecap: round; stroke: rgb(194, 227, 230);" x1="294.598" y1="104.69" x2="327.438" y2="104.69"/>
  <line style="stroke-width: 13px; stroke-linecap: round; stroke: rgb(229, 229, 229);" x1="344.193" y1="104.189" x2="358.39" y2="104.189"/>
  <line style="stroke-width: 13px; stroke-linecap: round; stroke: rgb(180, 175, 251);" x1="377.117" y1="104.164" x2="433.084" y2="104.164"/>
  <line style="stroke-width: 13px; stroke-linecap: round; stroke: rgb(180, 175, 251);" x1="78.481" y1="124.477" x2="117.232" y2="124.477"/>
  <line style="stroke-width: 13px; stroke-linecap: round; stroke: #F6A89C;" x1="134.912" y1="124.216" x2="151.267" y2="124.216"/>
  <line style="stroke-width: 13px; stroke-linecap: round; stroke: rgb(194, 227, 230);" x1="166.7" y1="123.715" x2="183.722" y2="123.715"/>
  <line style="stroke-width: 13px; stroke-linecap: round; stroke: #F6A89C;" x1="200.058" y1="123.965" x2="253.803" y2="123.965"/>
  <line style="stroke-width: 13px; stroke-linecap: round; stroke: rgb(180, 175, 251);" x1="272.654" y1="124.179" x2="274.37" y2="124.179"/>
  <line style="stroke-width: 13px; stroke-linecap: round; stroke: rgb(180, 175, 251);" x1="294.322" y1="123.724" x2="348.067" y2="123.724"/>
  <line style="stroke-width: 13px; stroke-linecap: round; stroke: rgb(229, 229, 229);" x1="365.227" y1="123.413" x2="365.487" y2="123.413"/>
  <line style="stroke-width: 13px; stroke-linecap: round; stroke: rgb(194, 227, 230);" x1="382.73" y1="123.251" x2="433.089" y2="123.251"/>
  <line style="stroke-width: 13px; stroke-linecap: round; stroke: rgb(180, 175, 251);" x1="78.863" y1="144.406" x2="94.084" y2="144.406"/>
  <line style="stroke-width: 13px; stroke-linecap: round; stroke: rgb(180, 175, 251);" x1="134.871" y1="144.145" x2="167.711" y2="144.145"/>
  <line style="stroke-width: 13px; stroke-linecap: round; stroke: rgb(180, 175, 251);" x1="279.76" y1="143.644" x2="293.957" y2="143.644"/>
  <line style="stroke-width: 13px; stroke-linecap: round; stroke: rgb(180, 175, 251);" x1="309.388" y1="143.619" x2="433.012" y2="143.619"/>
  <line style="stroke-width: 13px; stroke-linecap: round; stroke: rgb(229, 229, 229);" x1="78.581" y1="163.932" x2="115.786" y2="163.932"/>
  <line style="stroke-width: 13px; stroke-linecap: round; stroke: rgb(194, 227, 230);" x1="133.49" y1="163.671" x2="149.845" y2="163.671"/>
  <line style="stroke-width: 13px; stroke-linecap: round; stroke: rgb(180, 175, 251);" x1="167.397" y1="163.17" x2="169.061" y2="163.17"/>
  <line style="stroke-width: 13px; stroke-linecap: round; stroke: rgb(180, 175, 251);" x1="208.797" y1="163.42" x2="276.953" y2="163.42"/>
  <line style="stroke-width: 13px; stroke-linecap: round; stroke: rgb(229, 229, 229);" x1="187.979" y1="163.634" x2="189.695" y2="163.634"/>
  <line style="stroke-width: 13px; stroke-linecap: round; stroke: #F6A89C;" x1="292.9" y1="163.179" x2="346.645" y2="163.179"/>
  <line style="stroke-width: 13px; stroke-linecap: round; stroke: rgb(180, 175, 251);" x1="363.805" y1="162.868" x2="364.065" y2="162.868"/>
  <line style="stroke-width: 13px; stroke-linecap: round; stroke: rgb(194, 227, 230);" x1="381.308" y1="162.706" x2="432.011" y2="162.706"/>
  <line style="stroke-width: 13px; stroke-linecap: round; stroke: rgb(180, 175, 251);" x1="260.297" y1="143.153" x2="262.179" y2="143.153"/>
  <line style="stroke-width: 13px; stroke-linecap: round; stroke: rgb(229, 229, 229);" x1="113.927" y1="144.203" x2="118.202" y2="144.203"/>
  <line style="stroke-width: 13px; stroke-linecap: round; stroke: rgb(180, 175, 251);" x1="184.625" y1="143.95" x2="227.391" y2="143.95"/>
  <line style="stroke-width: 13px; stroke-linecap: round; stroke: rgb(194, 227, 230);" x1="244.308" y1="143.096" x2="244.462" y2="143.096"/>
  <line style="stroke-width: 13px; stroke-linecap: round; stroke: #F6A89C;" x1="78.353" y1="219.42" x2="274.415" y2="219.42"/>
  <line style="stroke-width: 13px; stroke-linecap: round; stroke: rgb(194, 227, 230);" x1="291.923" y1="219.159" x2="324.763" y2="219.159"/>
  <line style="stroke-width: 13px; stroke-linecap: round; stroke: #F6A89C;" x1="341.518" y1="218.658" x2="355.715" y2="218.658"/>
  <line style="stroke-width: 13px; stroke-linecap: round; stroke: rgb(229, 229, 229);" x1="374.442" y1="218.633" x2="433.064" y2="218.633"/>
  <line style="stroke-width: 13px; stroke-linecap: round; stroke: rgb(180, 175, 251);" x1="79.17" y1="184.601" x2="83.349" y2="184.601" transform="matrix(-1, 0, 0, -1, 162.518997, 369.201996)"/>
  <line style="stroke-width: 13px; stroke-linecap: round; stroke: rgb(194, 227, 230);" x1="99.888" y1="184.34" x2="116.243" y2="184.34"/>
  <line style="stroke-width: 13px; stroke-linecap: round; stroke: rgb(180, 175, 251);" x1="132.072" y1="183.839" x2="182.389" y2="183.839"/>
  <line style="stroke-width: 13px; stroke-linecap: round; stroke: #F6A89C;" x1="197.383" y1="184.089" x2="201.055" y2="184.089"/>
  <line style="stroke-width: 13px; stroke-linecap: round; stroke: rgb(180, 175, 251);" x1="269.979" y1="184.303" x2="271.695" y2="184.303"/>
  <line style="stroke-width: 13px; stroke-linecap: round; stroke: rgb(229, 229, 229);" x1="291.647" y1="183.848" x2="345.392" y2="183.848"/>
  <line style="stroke-width: 13px; stroke-linecap: round; stroke: #F6A89C;" x1="424.38" y1="183.537" x2="432.478" y2="183.537"/>
  <line style="stroke-width: 13px; stroke-linecap: round; stroke: rgb(180, 175, 251);" x1="361.724" y1="183.375" x2="408.785" y2="183.375"/>
  <line style="stroke-width: 13px; stroke-linecap: round; stroke: rgb(180, 175, 251);" x1="77.802" y1="236.544" x2="91.364" y2="236.544"/>
  <line style="stroke-width: 13px; stroke-linecap: round; stroke: rgb(194, 227, 230);" x1="132.196" y1="236.283" x2="165.036" y2="236.283"/>
  <line style="stroke-width: 13px; stroke-linecap: round; stroke: #F6A89C;" x1="277.085" y1="235.782" x2="291.282" y2="235.782"/>
  <line style="stroke-width: 13px; stroke-linecap: round; stroke-linejoin: round; stroke: #F6A89C;" x1="306.713" y1="235.757" x2="433.629" y2="235.757"/>
  <line style="stroke-width: 13px; stroke-linecap: round; stroke: rgb(180, 175, 251);" x1="78.691" y1="203.437" x2="113.066" y2="203.437"/>
  <line style="stroke-width: 13px; stroke-linecap: round; stroke: rgb(180, 175, 251);" x1="130.815" y1="203.176" x2="147.17" y2="203.176"/>
  <line style="stroke-width: 13px; stroke-linecap: round; stroke: rgb(194, 227, 230);" x1="162.587" y1="202.675" x2="180.359" y2="202.675"/>
  <line style="stroke-width: 13px; stroke-linecap: round; stroke: #F6A89C;" x1="195.961" y1="202.925" x2="249.706" y2="202.925"/>
  <line style="stroke-width: 13px; stroke-linecap: round; stroke: rgb(229, 229, 229);" x1="266.76" y1="202.684" x2="323.25" y2="202.684"/>
  <line style="stroke-width: 13px; stroke-linecap: round; stroke: #F6A89C;" x1="359.721" y1="202.373" x2="359.981" y2="202.373"/>
  <line style="stroke-width: 13px; stroke-linecap: round; stroke: rgb(229, 229, 229);" x1="378.633" y1="202.211" x2="432.835" y2="202.211"/>
  <line style="stroke-width: 13px; stroke-linecap: round; stroke: rgb(180, 175, 251);" x1="257.622" y1="235.291" x2="259.504" y2="235.291"/>
  <line style="stroke-width: 13px; stroke-linecap: round; stroke: rgb(180, 175, 251);" x1="111.252" y1="236.341" x2="115.527" y2="236.341"/>
  <line style="stroke-width: 13px; stroke-linecap: round; stroke: rgb(180, 175, 251);" x1="181.95" y1="236.088" x2="224.716" y2="236.088"/>
  <line style="stroke-width: 13px; stroke-linecap: round; stroke: rgb(180, 175, 251);" x1="241.633" y1="235.234" x2="241.787" y2="235.234"/>
  <line style="stroke-width: 13px; stroke-linecap: round; stroke: rgb(180, 175, 251);" x1="341.922" y1="202.275" x2="342.182" y2="202.275"/>
  <line style="stroke-width: 13px; stroke-linecap: round; stroke: rgb(194, 227, 230);" x1="216.943" y1="183.872" x2="252.531" y2="183.872"/>
  <line style="stroke-width: 13px; stroke-linecap: round; stroke: #F6A89C;" x1="77.39" y1="254.017" x2="273.448" y2="254.017"/>
  <line style="stroke-width: 13px; stroke-linecap: round; stroke: rgb(194, 227, 230);" x1="295.078" y1="253.756" x2="327.918" y2="253.756"/>
  <line style="stroke-width: 13px; stroke-linecap: round; stroke: rgb(229, 229, 229);" x1="344.673" y1="253.255" x2="358.87" y2="253.255"/>
  <line style="stroke-width: 13px; stroke-linecap: round; stroke: rgb(180, 175, 251);" x1="377.597" y1="253.23" x2="433.564" y2="253.23"/>
  <line style="stroke-width: 13px; stroke-linecap: round; stroke: rgb(180, 175, 251);" x1="78.216" y1="273.543" x2="118.649" y2="273.543"/>
  <line style="stroke-width: 13px; stroke-linecap: round; stroke: #F6A89C;" x1="135.392" y1="273.282" x2="151.747" y2="273.282"/>
  <line style="stroke-width: 13px; stroke-linecap: round; stroke: rgb(194, 227, 230);" x1="167.18" y1="272.781" x2="184.202" y2="272.781"/>
  <line style="stroke-width: 13px; stroke-linecap: round; stroke: #F6A89C;" x1="200.538" y1="273.031" x2="254.283" y2="273.031"/>
  <line style="stroke-width: 13px; stroke-linecap: round; stroke: rgb(180, 175, 251);" x1="273.134" y1="273.245" x2="274.85" y2="273.245"/>
  <line style="stroke-width: 13px; stroke-linecap: round; stroke: rgb(180, 175, 251);" x1="294.802" y1="272.79" x2="348.547" y2="272.79"/>
  <line style="stroke-width: 13px; stroke-linecap: round; stroke: rgb(229, 229, 229);" x1="365.707" y1="272.479" x2="365.967" y2="272.479"/>
  <line style="stroke-width: 13px; stroke-linecap: round; stroke: rgb(194, 227, 230);" x1="383.21" y1="272.317" x2="433.569" y2="272.317"/>
  <line style="stroke-width: 13px; stroke-linecap: round; stroke: rgb(180, 175, 251);" x1="78.478" y1="293.472" x2="92.597" y2="293.472"/>
  <line style="stroke-width: 13px; stroke-linecap: round; stroke: rgb(180, 175, 251);" x1="135.351" y1="293.211" x2="168.191" y2="293.211"/>
  <line style="stroke-width: 13px; stroke-linecap: round; stroke: rgb(180, 175, 251);" x1="280.24" y1="292.71" x2="294.437" y2="292.71"/>
  <line style="stroke-width: 13px; stroke-linecap: round; stroke: rgb(180, 175, 251);" x1="309.868" y1="292.685" x2="433.492" y2="292.685"/>
  <line style="stroke-width: 13px; stroke-linecap: round; stroke: rgb(229, 229, 229);" x1="78.31" y1="312.998" x2="114.537" y2="312.998"/>
  <line style="stroke-width: 13px; stroke-linecap: round; stroke: rgb(194, 227, 230);" x1="133.97" y1="312.737" x2="150.325" y2="312.737"/>
  <line style="stroke-width: 13px; stroke-linecap: round; stroke: rgb(180, 175, 251);" x1="167.877" y1="312.236" x2="169.541" y2="312.236"/>
  <line style="stroke-width: 13px; stroke-linecap: round; stroke: rgb(180, 175, 251);" x1="209.277" y1="312.486" x2="277.433" y2="312.486"/>
  <line style="stroke-width: 13px; stroke-linecap: round; stroke: rgb(229, 229, 229);" x1="188.459" y1="312.7" x2="190.175" y2="312.7"/>
  <line style="stroke-width: 13px; stroke-linecap: round; stroke: #F6A89C;" x1="293.38" y1="312.245" x2="347.125" y2="312.245"/>
  <line style="stroke-width: 13px; stroke-linecap: round; stroke: rgb(180, 175, 251);" x1="364.285" y1="311.934" x2="364.545" y2="311.934"/>
  <line style="stroke-width: 13px; stroke-linecap: round; stroke: rgb(194, 227, 230);" x1="381.788" y1="311.772" x2="432.491" y2="311.772"/>
  <line style="stroke-width: 13px; stroke-linecap: round; stroke: rgb(180, 175, 251);" x1="260.777" y1="292.219" x2="262.659" y2="292.219"/>
  <line style="stroke-width: 13px; stroke-linecap: round; stroke: rgb(229, 229, 229);" x1="114.407" y1="293.269" x2="118.682" y2="293.269"/>
  <line style="stroke-width: 13px; stroke-linecap: round; stroke: rgb(180, 175, 251);" x1="185.105" y1="293.016" x2="227.871" y2="293.016"/>
  <line style="stroke-width: 13px; stroke-linecap: round; stroke: rgb(194, 227, 230);" x1="244.788" y1="292.162" x2="244.942" y2="292.162"/>
  <line style="stroke-width: 13px; stroke-linecap: round; stroke: #F6A89C;" x1="77.946" y1="368.486" x2="274.895" y2="368.486"/>
  <line style="stroke-width: 13px; stroke-linecap: round; stroke: rgb(194, 227, 230);" x1="292.403" y1="368.225" x2="325.243" y2="368.225"/>
  <line style="stroke-width: 13px; stroke-linecap: round; stroke: #F6A89C;" x1="341.998" y1="367.724" x2="356.195" y2="367.724"/>
  <line style="stroke-width: 13px; stroke-linecap: round; stroke: rgb(229, 229, 229);" x1="374.922" y1="367.699" x2="433.544" y2="367.699"/>
  <line style="stroke-width: 13px; stroke-linecap: round; stroke: rgb(180, 175, 251);" x1="77.845" y1="333.667" x2="83.796" y2="333.667" transform="matrix(-1, 0, 0, -1, 161.640999, 667.333984)"/>
  <line style="stroke-width: 13px; stroke-linecap: round; stroke: rgb(194, 227, 230);" x1="100.368" y1="333.406" x2="116.723" y2="333.406"/>
  <line style="stroke-width: 13px; stroke-linecap: round; stroke: rgb(180, 175, 251);" x1="132.552" y1="332.905" x2="182.869" y2="332.905"/>
  <line style="stroke-width: 13px; stroke-linecap: round; stroke: #F6A89C;" x1="197.863" y1="333.155" x2="201.535" y2="333.155"/>
  <line style="stroke-width: 13px; stroke-linecap: round; stroke: rgb(180, 175, 251);" x1="270.459" y1="333.369" x2="272.175" y2="333.369"/>
  <line style="stroke-width: 13px; stroke-linecap: round; stroke: rgb(229, 229, 229);" x1="292.127" y1="332.914" x2="345.872" y2="332.914"/>
  <line style="stroke-width: 13px; stroke-linecap: round; stroke: #F6A89C;" x1="424.86" y1="332.603" x2="432.958" y2="332.603"/>
  <line style="stroke-width: 13px; stroke-linecap: round; stroke: rgb(180, 175, 251);" x1="362.204" y1="332.441" x2="409.265" y2="332.441"/>
  <line style="stroke-width: 13px; stroke-linecap: round; stroke: rgb(180, 175, 251);" x1="77.946" y1="385.61" x2="92.935" y2="385.61"/>
  <line style="stroke-width: 13px; stroke-linecap: round; stroke: rgb(194, 227, 230);" x1="132.676" y1="385.349" x2="165.516" y2="385.349"/>
  <line style="stroke-width: 13px; stroke-linecap: round; stroke: #F6A89C;" x1="277.565" y1="384.848" x2="291.762" y2="384.848"/>
  <line style="stroke-width: 13px; stroke-linecap: round; stroke-linejoin: round; stroke: #F6A89C;" x1="307.193" y1="384.823" x2="434.109" y2="384.823"/>
  <line style="stroke-width: 13px; stroke-linecap: round; stroke: rgb(180, 175, 251);" x1="77.593" y1="352.503" x2="114.508" y2="352.503"/>
  <line style="stroke-width: 13px; stroke-linecap: round; stroke: rgb(180, 175, 251);" x1="131.295" y1="352.242" x2="147.65" y2="352.242"/>
  <line style="stroke-width: 13px; stroke-linecap: round; stroke: rgb(194, 227, 230);" x1="163.067" y1="351.741" x2="180.839" y2="351.741"/>
  <line style="stroke-width: 13px; stroke-linecap: round; stroke: #F6A89C;" x1="196.441" y1="351.991" x2="250.186" y2="351.991"/>
  <line style="stroke-width: 13px; stroke-linecap: round; stroke: rgb(229, 229, 229);" x1="267.24" y1="351.75" x2="323.73" y2="351.75"/>
  <line style="stroke-width: 13px; stroke-linecap: round; stroke: #F6A89C;" x1="360.201" y1="351.439" x2="360.461" y2="351.439"/>
  <line style="stroke-width: 13px; stroke-linecap: round; stroke: rgb(229, 229, 229);" x1="379.113" y1="351.277" x2="433.315" y2="351.277"/>
  <line style="stroke-width: 13px; stroke-linecap: round; stroke: rgb(180, 175, 251);" x1="258.102" y1="384.357" x2="259.984" y2="384.357"/>
  <line style="stroke-width: 13px; stroke-linecap: round; stroke: rgb(180, 175, 251);" x1="111.732" y1="385.407" x2="116.007" y2="385.407"/>
  <line style="stroke-width: 13px; stroke-linecap: round; stroke: rgb(180, 175, 251);" x1="182.43" y1="385.154" x2="225.196" y2="385.154"/>
  <line style="stroke-width: 13px; stroke-linecap: round; stroke: rgb(180, 175, 251);" x1="242.113" y1="384.3" x2="242.267" y2="384.3"/>
  <line style="stroke-width: 13px; stroke-linecap: round; stroke: rgb(180, 175, 251);" x1="342.402" y1="351.341" x2="342.662" y2="351.341"/>
  <line style="stroke-width: 13px; stroke-linecap: round; stroke: rgb(194, 227, 230);" x1="217.423" y1="332.938" x2="253.011" y2="332.938"/>
</svg>